<svg width="48" height="32" viewBox="0 0 48 32" fill="none" xmlns="http://www.w3.org/2000/svg">
<rect x="0.502204" y="0.887946" width="46.8384" height="30.2545" rx="5.49062" fill="white"/>
<rect x="0.502204" y="0.887946" width="46.8384" height="30.2545" rx="5.49062" stroke="#D6DCE5" stroke-width="0.224107"/>
<path d="M27.2699 9.84839H20.4066V22.1819H27.2699V9.84839Z" fill="#FF5F00"/>
<path d="M20.8425 16.0151C20.8414 14.8273 21.1105 13.6548 21.6296 12.5864C22.1486 11.518 22.9039 10.5817 23.8383 9.84838C22.6812 8.93887 21.2915 8.37325 19.8282 8.21618C18.3648 8.05912 16.8867 8.31694 15.563 8.96018C14.2392 9.60342 13.1231 10.6061 12.3423 11.8537C11.5614 13.1013 11.1473 14.5434 11.1473 16.0151C11.1473 17.4869 11.5614 18.929 12.3423 20.1766C13.1231 21.4241 14.2392 22.4269 15.563 23.0701C16.8867 23.7133 18.3648 23.9712 19.8282 23.8141C21.2915 23.657 22.6812 23.0914 23.8383 22.1819C22.9039 21.4485 22.1486 20.5122 21.6296 19.4438C21.1105 18.3754 20.8414 17.2029 20.8425 16.0151Z" fill="#EB001B"/>
<path d="M36.5289 16.0151C36.5289 17.4869 36.1149 18.929 35.3341 20.1765C34.5533 21.4241 33.4372 22.4268 32.1135 23.0701C30.7897 23.7133 29.3117 23.9712 27.8484 23.8141C26.385 23.657 24.9954 23.0914 23.8383 22.1819C24.7719 21.4478 25.5266 20.5113 26.0455 19.4431C26.5645 18.3749 26.8341 17.2028 26.8341 16.0151C26.8341 14.8275 26.5645 13.6554 26.0455 12.5872C25.5266 11.5189 24.7719 10.5825 23.8383 9.84838C24.9954 8.93886 26.385 8.37325 27.8484 8.21618C29.3117 8.05912 30.7897 8.31695 32.1135 8.9602C33.4372 9.60345 34.5533 10.6062 35.3341 11.8537C36.1149 13.1013 36.5289 14.5434 36.5289 16.0151Z" fill="#F79E1B"/>
<path d="M35.7805 20.8756V20.6231H35.8824V20.5716H35.6231V20.6231H35.7249V20.8756H35.7805ZM36.284 20.8756V20.5711H36.2045L36.1131 20.7805L36.0216 20.5711H35.9421V20.8756H35.9982V20.6459L36.0839 20.8439H36.1421L36.2279 20.6454V20.8756H36.284Z" fill="#F79E1B"/>
</svg>
