<svg width="48" height="32" viewBox="0 0 48 32" fill="none" xmlns="http://www.w3.org/2000/svg">
<rect x="0.116462" y="0.887946" width="46.8384" height="30.2545" rx="5.49062" fill="white"/>
<rect x="0.116462" y="0.887946" width="46.8384" height="30.2545" rx="5.49062" stroke="#D6DCE5" stroke-width="0.224107"/>
<path fill-rule="evenodd" clip-rule="evenodd" d="M10.4257 11.646H7.7382C7.55429 11.646 7.39788 11.7796 7.3692 11.9611L6.28224 18.8518C6.26063 18.9879 6.36595 19.1104 6.50388 19.1104H7.78692C7.97083 19.1104 8.12724 18.9768 8.15592 18.7949L8.44908 16.9364C8.47736 16.7544 8.63416 16.6209 8.81768 16.6209H9.66845C11.4388 16.6209 12.4605 15.7643 12.7274 14.0669C12.8476 13.3243 12.7325 12.7408 12.3846 12.332C12.0027 11.8835 11.3251 11.646 10.4257 11.646ZM10.7358 14.1627C10.5888 15.127 9.85198 15.127 9.13953 15.127H8.73398L9.01849 13.3261C9.03538 13.2174 9.12969 13.1372 9.23973 13.1372H9.4256C9.91092 13.1372 10.3688 13.1372 10.6054 13.4138C10.7463 13.5789 10.7896 13.824 10.7358 14.1627ZM18.4593 14.1318H17.1723C17.0626 14.1318 16.9679 14.212 16.951 14.3209L16.8941 14.6808L16.804 14.5504C16.5254 14.146 15.9042 14.0109 15.2841 14.0109C13.8618 14.0109 12.6472 15.0879 12.4106 16.5988C12.2877 17.3523 12.4625 18.0729 12.89 18.5755C13.2823 19.0375 13.8435 19.2301 14.511 19.2301C15.6569 19.2301 16.2925 18.4933 16.2925 18.4933L16.235 18.8509C16.2134 18.9877 16.3187 19.1102 16.4558 19.1102H17.6151C17.7995 19.1102 17.955 18.9766 17.9841 18.7948L18.6797 14.3904C18.7017 14.2549 18.5968 14.1318 18.4593 14.1318ZM16.6653 16.6364C16.5411 17.3715 15.9575 17.865 15.2134 17.865C14.8397 17.865 14.5409 17.7452 14.3492 17.5181C14.159 17.2926 14.0866 16.9715 14.1472 16.614C14.2632 15.8851 14.8566 15.3756 15.5894 15.3756C15.9548 15.3756 16.2519 15.4968 16.4476 15.726C16.6436 15.9574 16.7215 16.2804 16.6653 16.6364ZM24.0202 14.1317H25.3135C25.4947 14.1317 25.6003 14.3348 25.4974 14.4833L21.196 20.6914C21.1263 20.792 21.0116 20.8518 20.889 20.8518H19.5973C19.4155 20.8518 19.3093 20.6471 19.4146 20.4982L20.7539 18.6078L19.3294 14.4279C19.2802 14.2826 19.3875 14.1317 19.542 14.1317H20.8128C20.978 14.1317 21.1236 14.24 21.1713 14.398L21.9272 16.9226L23.711 14.2955C23.7809 14.1929 23.8969 14.1317 24.0202 14.1317Z" fill="#253B80"/>
<path fill-rule="evenodd" clip-rule="evenodd" d="M38.0427 18.8512L39.1457 11.8345C39.1626 11.7256 39.257 11.6454 39.3666 11.645H40.6083C40.7455 11.645 40.8507 11.7679 40.8291 11.9039L39.7414 18.7943C39.7131 18.9762 39.5567 19.1098 39.3725 19.1098H38.2635C38.1264 19.1098 38.0211 18.9872 38.0427 18.8512ZM29.5958 11.6454H26.9078C26.7243 11.6454 26.5679 11.779 26.5392 11.9605L25.4523 18.8512C25.4306 18.9872 25.5359 19.1098 25.6732 19.1098H27.0524C27.1806 19.1098 27.2903 19.0163 27.3103 18.8891L27.6187 16.9358C27.6471 16.7538 27.8038 16.6203 27.9873 16.6203H28.8377C30.6084 16.6203 31.6298 15.7637 31.897 14.0663C32.0176 13.3237 31.9017 12.7402 31.554 12.3314C31.1723 11.8829 30.4953 11.6454 29.5958 11.6454ZM29.9059 14.1621C29.7593 15.1264 29.0224 15.1264 28.3096 15.1264H27.9044L28.1893 13.3255C28.2063 13.2168 28.2997 13.1366 28.4101 13.1366H28.596C29.081 13.1366 29.5393 13.1366 29.7757 13.4132C29.9168 13.5783 29.9597 13.8234 29.9059 14.1621ZM37.6287 14.1312H36.3426C36.232 14.1312 36.1382 14.2114 36.1216 14.3203L36.0647 14.6802L35.9743 14.5498C35.6957 14.1454 35.0749 14.0103 34.4548 14.0103C33.0325 14.0103 31.8182 15.0873 31.5817 16.5981C31.4591 17.3517 31.6331 18.0723 32.0607 18.5748C32.4536 19.0369 33.0141 19.2294 33.6817 19.2294C34.8276 19.2294 35.463 18.4927 35.463 18.4927L35.4057 18.8503C35.384 18.9871 35.4893 19.1096 35.6274 19.1096H36.7861C36.9696 19.1096 37.126 18.976 37.1548 18.7941L37.8507 14.3898C37.872 14.2543 37.7667 14.1312 37.6287 14.1312ZM35.8349 16.6358C35.7114 17.3709 35.1271 17.8644 34.3828 17.8644C34.0098 17.8644 33.7104 17.7446 33.5186 17.5175C33.3284 17.292 33.2569 16.9709 33.3167 16.6134C33.4333 15.8845 34.026 15.375 34.7588 15.375C35.1243 15.375 35.4213 15.4962 35.6172 15.7253C35.8139 15.9568 35.8918 16.2798 35.8349 16.6358Z" fill="#179BD7"/>
</svg>
