<svg width="48" height="32" viewBox="0 0 48 32" fill="none" xmlns="http://www.w3.org/2000/svg">
<rect x="0.887946" y="0.887946" width="46.8384" height="30.2545" rx="5.49062" fill="white"/>
<rect x="0.887946" y="0.887946" width="46.8384" height="30.2545" rx="5.49062" stroke="#D6DCE5" stroke-width="0.224107"/>
<path d="M24.0221 11.121L21.8479 21.2845H19.2188L21.3933 11.121H24.0221ZM35.0838 17.6836L36.468 13.8669L37.2645 17.6836H35.0838ZM38.0172 21.2845H40.4491L38.327 11.121H36.0823C35.5779 11.121 35.1523 11.4144 34.9628 11.8667L31.0184 21.2845H33.7794L34.3275 19.7668H37.7007L38.0172 21.2845ZM31.1554 17.9661C31.1667 15.2836 27.4458 15.1359 27.4715 13.9376C27.4792 13.5725 27.827 13.1852 28.5865 13.0858C28.9638 13.0366 30.0012 12.999 31.1792 13.541L31.6405 11.3857C31.0078 11.1561 30.1936 10.9351 29.1809 10.9351C26.5824 10.9351 24.7533 12.3167 24.7379 14.295C24.7215 15.758 26.0436 16.5745 27.0398 17.0609C28.0641 17.5591 28.4083 17.8782 28.4038 18.3238C28.397 19.0061 27.5867 19.3065 26.8307 19.3184C25.5086 19.3393 24.7414 18.9617 24.1299 18.6767L23.6535 20.9037C24.2676 21.1858 25.4015 21.4309 26.5779 21.4435C29.3395 21.4435 31.1464 20.0789 31.1554 17.9661ZM20.2652 11.121L16.0055 21.2845H13.2258L11.1298 13.1733C11.0024 12.6738 10.8917 12.491 10.5047 12.2803C9.87327 11.9377 8.82941 11.6157 7.91101 11.4163L7.97374 11.121H12.4474C13.0174 11.121 13.5305 11.5006 13.6598 12.1571L14.767 18.0388L17.5029 11.121H20.2652Z" fill="#1434CB"/>
</svg>
